<svg id="圖層_2" data-name="圖層 2" xmlns="http://www.w3.org/2000/svg" viewBox="0 0 90 90"><defs><style>.cls-1{fill:#ffe0ba;}</style></defs><title>icon</title><path class="cls-1" d="M19.68,13.17c-3.56-.62-6.82,1.15-7.44,4.71L3.73,66.77a6.54,6.54,0,0,0,5.32,7.56h0A6.54,6.54,0,0,0,16.62,69l8.5-48.89C25.74,16.56,23.24,13.79,19.68,13.17ZM15.62,69.28h-.08a.37.37,0,0,1-.37-.31,5.53,5.53,0,0,0-4.49-4.36,5.37,5.37,0,0,0-5.35,2,.39.39,0,0,1-.53.1.39.39,0,0,1-.1-.54,6.13,6.13,0,0,1,6.11-2.35,6.3,6.3,0,0,1,5.11,5A.39.39,0,0,1,15.62,69.28Z"/><path class="cls-1" d="M17.38,15l.43-2.24A1.93,1.93,0,0,1,20,11.19h0a1.94,1.94,0,0,1,1.59,2.24l-.39,2.26a.55.55,0,0,1-.63.44l-2.78-.51A.55.55,0,0,1,17.38,15Z"/><path class="cls-1" d="M61.18,62.12A5.29,5.29,0,0,0,62.47,61a.67.67,0,0,0,.15-.32.2.2,0,0,0,0-.17.26.26,0,0,0-.21,0,2.76,2.76,0,0,0-.95.59,4.37,4.37,0,0,0-.67.69c-.08.12-.4.56-.25.71S61.06,62.21,61.18,62.12Z"/><path class="cls-1" d="M44.24,45.61a.39.39,0,0,0-.07-.47.59.59,0,0,0-.32-.09,9,9,0,0,0-1.47,0,.47.47,0,0,0-.26.08.4.4,0,0,0-.06.48.85.85,0,0,0,.7.6,2.34,2.34,0,0,0,1.1-.26A.84.84,0,0,0,44.24,45.61Z"/><path class="cls-1" d="M70.27,27.56c-7-1.22-11.15-8.7-23.23-10.8s-18.87,3.48-18.87,3.48l-9,51.45S23.06,67.41,37.78,70s16.57,7.53,25.35,9,13.74-2.24,13.74-2.24l8.81-50.63S77.3,28.79,70.27,27.56Zm-35,4.36a22.88,22.88,0,0,1,3.19.35l.27,0a12.9,12.9,0,0,1,4.84,1.43,13,13,0,0,0,4.24,1.15c.76.11,1.72.26,3,.5a8,8,0,0,1,3.65,1.41,2.89,2.89,0,0,0,2.55.53,16.86,16.86,0,0,1,3.55-.05.3.3,0,0,1,.28.32v0a.33.33,0,0,1-.36.29h0A15.37,15.37,0,0,0,57.1,38a5.77,5.77,0,0,1-1.71,0,3.21,3.21,0,0,1-1.3-.63A7.42,7.42,0,0,0,50.7,36c-1.33-.23-2.28-.38-3-.49a13.58,13.58,0,0,1-4.37-1.19A12.53,12.53,0,0,0,38.59,33l-.27,0a24.61,24.61,0,0,0-3.08-.35.31.31,0,0,1-.33-.31h0A.35.35,0,0,1,35.24,31.92ZM68,65.55h0A2.42,2.42,0,0,1,66.26,65c-.12-.08-.26-.19-.42-.28s-.6,0-1,.1a2.62,2.62,0,0,1-1.14.2l-.23,0c-.79-.16-2.84-.71-3.54-1.73a10.23,10.23,0,0,1-3.53.2h0a.33.33,0,0,1,.11-.65,9.62,9.62,0,0,0,3.21-.18,1.3,1.3,0,0,1,.07-.48,5,5,0,0,1,3.17-2.41.56.56,0,0,1,.6.27c.17.32,0,.74-.54,1.44a5.29,5.29,0,0,1-2.38,1.62,6.79,6.79,0,0,0,3.17,1.31,2.26,2.26,0,0,0,.85-.17,1.82,1.82,0,0,1,1.56,0,5.2,5.2,0,0,1,.46.31A1.78,1.78,0,0,0,68,64.9a.33.33,0,0,1,.34.32A.32.32,0,0,1,68,65.55Zm2.58.43h0a.4.4,0,0,1-.19,0,.32.32,0,0,1-.18-.1l-.13,0a.33.33,0,0,1-.39-.26.32.32,0,0,1,.25-.38.68.68,0,0,1,.81.27A.31.31,0,0,1,70.62,66Zm3.47-12.29h0a.27.27,0,0,1-.34.19l-.06,0a15.87,15.87,0,0,0-6.82-1.48c-.83,0-1.69-.09-2.68-.19A6,6,0,0,1,60.67,51a3.37,3.37,0,0,0-1.82-.74l-1.49-.24a72.21,72.21,0,0,0-9.17-1,11,11,0,0,1-1.52-.17,9.29,9.29,0,0,1-4.27-2.08,50.16,50.16,0,0,1-9.84-1.07.34.34,0,0,1-.27-.39.32.32,0,0,1,.38-.25h0a53.57,53.57,0,0,0,9.1,1.08,1.87,1.87,0,0,1-.47-1,.57.57,0,0,1,.54-.59h.06c2.56-.13,3.18.15,3.32.6s-.34.85-.78,1.14a3.43,3.43,0,0,1-1.13.38,8.86,8.86,0,0,0,4.86,1.69,71.8,71.8,0,0,1,9.26,1l1.48.24a4,4,0,0,1,2.11.86,5.28,5.28,0,0,0,3.18,1c1,.1,1.82.14,2.64.18a16.29,16.29,0,0,1,7.07,1.54A.33.33,0,0,1,74.09,53.69ZM75,48.22h0a27.75,27.75,0,0,1-4.82-.4l-.41,0c-1.07-.14-1.81-.24-2.43-.36-1.38-.28-2.22-.69-4.77-2a14.93,14.93,0,0,0-6.36-1.87c-1.15-.15-2.59-.34-4.6-.69a9.25,9.25,0,0,1-5.39-2.43c-.9-.8-1.45-1.3-3.89-.83a20.78,20.78,0,0,1-8.53.06.34.34,0,0,1-.24-.4.32.32,0,0,1,.37-.25h0a20.55,20.55,0,0,0,8.23-.07c2.76-.52,3.51.14,4.45,1a8.52,8.52,0,0,0,5.07,2.26c2,.35,3.41.53,4.56.68a15.63,15.63,0,0,1,6.53,1.92c3.7,1.91,3.7,1.91,7,2.34l.41,0a29.25,29.25,0,0,0,4.67.4.34.34,0,0,1,.36.3A.33.33,0,0,1,75,48.22Zm1.57-6.92,0,0a5.55,5.55,0,0,1-3.3.12,13.65,13.65,0,0,1-4-1.54c-2.23-1.24-6-1.33-6.08-1.34a.31.31,0,0,1-.34-.31.32.32,0,0,1,.31-.34h0c.17,0,4,.08,6.39,1.41,4.37,2.43,6.65,1.43,6.68,1.41a.33.33,0,0,1,.43.16A.29.29,0,0,1,76.53,41.3Z"/></svg>