<svg id="圖層_2" data-name="圖層 2" xmlns="http://www.w3.org/2000/svg" viewBox="0 0 90 90"><defs><style>.cls-1{fill:#ffe0ba;}</style></defs><title>icon-contact</title><g id="Group_568" data-name="Group 568"><path id="Path_1520" data-name="Path 1520" class="cls-1" d="M86.37,38.9H70.48a1.42,1.42,0,0,0,0,2.84H86.37a1.42,1.42,0,0,0,0-2.84Z"/><path id="Path_1521" data-name="Path 1521" class="cls-1" d="M20.94,40.31a1.42,1.42,0,0,0-1.42-1.42H3.63a1.42,1.42,0,1,0,0,2.84H19.52a1.42,1.42,0,0,0,1.42-1.42Z"/><path id="Path_1522" data-name="Path 1522" class="cls-1" d="M4.9,35.94H18.23a2,2,0,0,0,2-2,1.82,1.82,0,0,0-.06-.46l-2-6.82a2.35,2.35,0,0,1,1.58-2.9,2.5,2.5,0,0,1,.66-.09h6a1.92,1.92,0,0,1,1.93,1.93h0A1.43,1.43,0,0,0,29.78,27H60.22a1.43,1.43,0,0,0,1.42-1.42h0a1.92,1.92,0,0,1,1.93-1.93h6A2.33,2.33,0,0,1,71.94,26a2.44,2.44,0,0,1-.09.66l-2,6.82a2,2,0,0,0,1.46,2.38,1.76,1.76,0,0,0,.46.06H85.1a2,2,0,0,0,2-2A1.82,1.82,0,0,0,87,33.5L83.55,21.8a8.86,8.86,0,0,1-.17-1.15A4.94,4.94,0,0,0,82,17.71a5,5,0,0,0-3.52-1.46h0a4.85,4.85,0,0,0-4.31,2.53H63.57a1.92,1.92,0,0,1-1.93-1.93,1.43,1.43,0,0,0-1.42-1.42H29.78a1.43,1.43,0,0,0-1.42,1.42,1.92,1.92,0,0,1-1.93,1.93H15.89a5,5,0,0,0-9.25,1.78,10,10,0,0,1-.24,1.33L3,33.51a2,2,0,0,0,1.45,2.37A1.76,1.76,0,0,0,4.9,35.94ZM34.17,18.28H55.84a3,3,0,0,1,0,5.94H34.17a3,3,0,0,1,0-5.94Z"/><path id="Path_1523" data-name="Path 1523" class="cls-1" d="M79.31,76.4H78c-5.12,0-9.28-3.8-9.28-8.47l0-8.25A5.47,5.47,0,0,0,66.1,55,37.2,37.2,0,0,1,52.57,41l-1.38-2.61a1.33,1.33,0,0,0-1.17-.7H40a1.33,1.33,0,0,0-1.17.7L37.42,41A37.32,37.32,0,0,1,23.9,55a5.49,5.49,0,0,0-2.68,4.67v8.24c0,4.67-4.16,8.47-9.28,8.47H10.67a1.32,1.32,0,0,0,0,2.64H79.32a1.32,1.32,0,0,0,0-2.63ZM26.58,58H63.13a.35.35,0,0,1,0,.7H26.58a.35.35,0,0,1-.35-.35h0a.34.34,0,0,1,.33-.35ZM67,76.75c-34.11,0-41.4-14.85-41.69-15.48A.35.35,0,0,1,26,61h0C26,61.12,33.4,76,67,76a.35.35,0,0,1,.35.35h0A.35.35,0,0,1,67,76.75Z"/></g></svg>