<svg id="圖層_2" data-name="圖層 2" xmlns="http://www.w3.org/2000/svg" viewBox="0 0 90 90"><defs><style>.cls-1{fill:#ffe0ba;}</style></defs><title>icon-about</title><rect class="cls-1" x="27.9" y="11.37" width="34.19" height="3.33" rx="1.44"/><rect class="cls-1" x="27.9" y="79.31" width="34.19" height="3.33" rx="1.44"/><path class="cls-1" d="M35,62.72c-2.73-3.6-6.47-8.52-6.47-16.79,0-10.08,4.9-14.4,8.14-17.25l.46-.41c3-2.67,3.6-9.16,3.63-9.5H32s0,0,0,.06c-.05.36-1.48,8.69-7.47,11.1-5.57,2.25-12.2,6.84-12.2,16,0,8.79,6.93,13.81,11.06,16.8.64.46,1.2.87,1.64,1.22,4.63,3.71,6.34,9.32,6.82,11.29h8.83a34.94,34.94,0,0,0-3.77-9.94A27.45,27.45,0,0,0,35,62.72Z"/><path class="cls-1" d="M51.6,64.89a30.19,30.19,0,0,1,1.88-2.65c2.67-3.51,6.32-8.31,6.32-16.31,0-9.72-4.74-13.89-7.88-16.65l-.46-.41c-3.31-2.94-3.87-9.78-3.89-10.07v0h-6s0,0,0,0c0,.29-.59,7.13-3.9,10.07l-.46.41C34.1,32,29.37,36.21,29.37,45.93c0,8,3.65,12.8,6.31,16.31a30.19,30.19,0,0,1,1.88,2.65,36,36,0,0,1,3.9,10.35h6.25A35.58,35.58,0,0,1,51.6,64.89Z"/><path class="cls-1" d="M64.18,64c.44-.35,1-.76,1.63-1.22,4.14-3,11.06-8,11.06-16.8,0-9.16-6.63-13.75-12.19-16-6-2.41-7.42-10.74-7.48-11.1v-.06H48.37c0,.34.63,6.83,3.62,9.5l.46.41c3.25,2.85,8.15,7.17,8.15,17.25,0,8.27-3.74,13.19-6.48,16.79a29.45,29.45,0,0,0-1.83,2.58,34.64,34.64,0,0,0-3.76,9.94h8.83C57.83,73.27,59.54,67.66,64.18,64Z"/><path class="cls-1" d="M24.49,64.58c-.44-.35-1-.75-1.6-1.2-4-2.88-11.4-8.25-11.4-17.45,0-7.49,4.51-13.44,12.7-16.74,5.37-2.17,6.85-9.78,7-10.42h-.89a3.57,3.57,0,0,0-3.37,2.44c-.56,1.67-1.47,3.75-2.7,4.7C20,29.14,12.08,30.59,9.6,32.43l0,.06a17,17,0,0,0,0,29s0,.05.07.07C12.08,63.41,20,64.86,24.2,68.1c1.23,1,2.14,3,2.7,4.7a3.57,3.57,0,0,0,3.37,2.44H31C30.45,73.21,28.74,68,24.49,64.58Z"/><path class="cls-1" d="M76,30.58c-3.36-1.2-7.7-2.55-10.46-4.67-1.24-.95-2.14-3-2.71-4.7a3.56,3.56,0,0,0-3.37-2.44H58c.12.64,1.61,8.26,7,10.42,8.18,3.3,12.69,9.25,12.69,16.74,0,9.2-7.41,14.57-11.39,17.45-.62.45-1.17.85-1.6,1.2-4.25,3.39-6,8.63-6.49,10.66h1.23a3.56,3.56,0,0,0,3.36-2.44c.57-1.67,1.48-3.75,2.72-4.7C68.28,66,72.64,64.62,76,63.41A17,17,0,0,0,76,30.58Z"/></svg>